<?xml version="1.0" encoding="UTF-8" standalone="no"?>
<svg
   xmlns:dc="http://purl.org/dc/elements/1.1/"
   xmlns:cc="http://creativecommons.org/ns#"
   xmlns:rdf="http://www.w3.org/1999/02/22-rdf-syntax-ns#"
   xmlns:svg="http://www.w3.org/2000/svg"
   xmlns="http://www.w3.org/2000/svg"
   xmlns:xlink="http://www.w3.org/1999/xlink"
   xmlns:sodipodi="http://sodipodi.sourceforge.net/DTD/sodipodi-0.dtd"
   xmlns:inkscape="http://www.inkscape.org/namespaces/inkscape"
   inkscape:version="1.0 (4035a4fb49, 2020-05-01)"
   sodipodi:docname="bg-pattern-header.svg"
   id="svg16"
   version="1.1"
   height="160"
   width="1440">
  <metadata
     id="metadata20">
    <rdf:RDF>
      <cc:Work
         rdf:about="">
        <dc:format>image/svg+xml</dc:format>
        <dc:type
           rdf:resource="http://purl.org/dc/dcmitype/StillImage" />
      </cc:Work>
    </rdf:RDF>
  </metadata>
  <sodipodi:namedview
     inkscape:current-layer="svg16"
     inkscape:window-maximized="1"
     inkscape:window-y="-9"
     inkscape:window-x="1911"
     inkscape:cy="200.75335"
     inkscape:cx="139.26998"
     inkscape:zoom="0.94141333"
     showgrid="false"
     id="namedview18"
     inkscape:window-height="1001"
     inkscape:window-width="1920"
     inkscape:pageshadow="2"
     inkscape:pageopacity="0"
     guidetolerance="10"
     gridtolerance="10"
     objecttolerance="10"
     borderopacity="1"
     bordercolor="#666666"
     pagecolor="#ffffff" />
  <defs
     id="defs3">
    <path
       d="M 0,0 H 375 V 136 H 0 Z"
       id="a" />
  </defs>
  <g
     transform="scale(3.84,1.1764706)"
     id="g14"
     fill-rule="evenodd"
     fill="none">
    <mask
       fill="#ffffff"
       id="b">
      <use
         height="100%"
         width="100%"
         y="0"
         x="0"
         id="use5"
         xlink:href="#a" />
    </mask>
    <use
       height="100%"
       width="100%"
       y="0"
       x="0"
       id="use8"
       xlink:href="#a"
       transform="matrix(-1,0,0,1,375,0)"
       fill="#5964e0" />
    <g
       id="g12"
       opacity="0.081"
       fill="#ffffff"
       mask="url(#b)">
      <path
         id="path10"
         d="m 313.06,-362.235 344.16,164.899 c 20.42,9.784 29.043,34.27 19.259,54.69 a 41,41 0 0 1 -13.459,15.87 L 356.104,88.129 C 337.556,101.117 311.99,96.609 299.002,78.06 A 41,41 0 0 1 291.783,58.545 L 254.54,-321.26 c -2.21,-22.535 14.268,-42.595 36.803,-44.805 a 41,41 0 0 1 21.717,3.83 z m -326,395 344.16,164.899 c 20.42,9.784 29.043,34.27 19.259,54.69 a 41,41 0 0 1 -13.459,15.87 L 30.104,483.129 c -18.548,12.988 -44.114,8.48 -57.102,-10.069 a 41,41 0 0 1 -7.219,-19.515 L -71.46,73.74 c -2.21,-22.535 14.268,-42.595 36.803,-44.805 a 41,41 0 0 1 21.717,3.83 z" />
    </g>
  </g>
</svg>
